<?xml version="1.0" encoding="utf-8"?>
<svg version="1.1" height="100%" width="100%" x="0px" y="0px" viewBox="0 0 640 480" preserveAspectRatio="xMidYMid meet" class="" xmlns="http://www.w3.org/2000/svg">
  <g class="sampleIcons_1" transform="matrix(5.333333, 0, 0, 5.333333, 53.333351, -26.669315)" fill="#0a9efc">
    <g>
      <path d="M82.966,30.566c-6.635,0-12.033,5.398-12.033,12.033c0,0.727,0.075,1.433,0.199,2.123l-10.315,3.353   c-1.494-3.082-4.28-5.515-7.852-6.425c-0.438-0.111-0.885-0.19-1.332-0.252V30.556c5.863-0.803,10.398-5.83,10.398-11.908   c0-6.636-5.399-12.035-12.035-12.035s-12.032,5.399-12.032,12.035c0,6.078,4.534,11.105,10.396,11.908v10.843   c-4.001,0.546-7.442,3.066-9.186,6.676l-10.306-3.349c0.124-0.69,0.199-1.398,0.199-2.125c0-6.635-5.398-12.032-12.033-12.032   C10.398,30.568,5,35.966,5,42.601c0,6.636,5.398,12.035,12.034,12.035c4.756,0,8.865-2.781,10.817-6.797l10.314,3.352   c-0.729,4.059,0.688,8.077,3.507,10.794l-6.368,8.765c-1.693-0.91-3.627-1.43-5.68-1.43c-6.636,0-12.035,5.398-12.035,12.033   c0,6.636,5.399,12.035,12.035,12.035c6.635,0,12.032-5.399,12.032-12.035c0-3.405-1.429-6.479-3.71-8.67l6.377-8.774   c0.841,0.45,1.739,0.818,2.704,1.063c0.976,0.248,1.977,0.373,2.975,0.373c2.035,0,3.973-0.512,5.676-1.426l6.368,8.763   c-2.283,2.192-3.712,5.266-3.712,8.671c0,6.636,5.399,12.035,12.035,12.035c6.635,0,12.033-5.399,12.033-12.035   c0-6.635-5.398-12.033-12.033-12.033c-2.054,0-3.987,0.52-5.68,1.43l-6.365-8.76c1.579-1.517,2.761-3.469,3.332-5.709   c0.438-1.721,0.468-3.447,0.17-5.09l10.321-3.354c1.952,4.016,6.061,6.798,10.817,6.798C89.602,54.634,95,49.235,95,42.6   C95,35.965,89.602,30.566,82.966,30.566z M17.034,51.362c-4.831,0-8.761-3.931-8.761-8.762c0-4.829,3.93-8.759,8.761-8.759   c4.829,0,8.76,3.93,8.76,8.759C25.794,47.432,21.863,51.362,17.034,51.362z M38.384,81.353c0,4.831-3.93,8.762-8.759,8.762   c-4.831,0-8.762-3.931-8.762-8.762c0-4.829,3.931-8.759,8.762-8.759C34.454,72.594,38.384,76.523,38.384,81.353z M70.37,72.594   c4.829,0,8.76,3.93,8.76,8.759c0,4.831-3.931,8.762-8.76,8.762c-4.83,0-8.762-3.931-8.762-8.762   C61.608,76.523,65.54,72.594,70.37,72.594z M41.237,18.647c0-4.831,3.929-8.762,8.759-8.762c4.831,0,8.761,3.931,8.761,8.762   c0,4.829-3.93,8.759-8.761,8.759C45.166,27.406,41.237,23.477,41.237,18.647z M58.484,55.474c-0.988,3.884-4.478,6.598-8.481,6.598   c-0.728,0-1.456-0.092-2.168-0.273c-4.678-1.19-7.516-5.967-6.325-10.646c0.991-3.886,4.479-6.6,8.483-6.6   c0.727,0,1.454,0.092,2.165,0.272C56.836,46.018,59.674,50.795,58.484,55.474z M82.966,51.36c-4.829,0-8.76-3.931-8.76-8.761   s3.931-8.76,8.76-8.76c4.831,0,8.761,3.93,8.761,8.76S87.797,51.36,82.966,51.36z"/>
    </g>
  </g>
</svg>